<?xml version="1.0" encoding="UTF-8" standalone="no"?><svg xmlns="http://www.w3.org/2000/svg" xmlns:xlink="http://www.w3.org/1999/xlink" contentScriptType="application/ecmascript" contentStyleType="text/css" height="598px" preserveAspectRatio="none" style="width:2464px;height:598px;background:#FFFFFF;" version="1.1" viewBox="0 0 2464 598" width="2464px" zoomAndPan="magnify"><defs><filter height="300%" id="f5oeol8zxrkj8" width="300%" x="-1" y="-1"><feGaussianBlur result="blurOut" stdDeviation="2.0"/><feColorMatrix in="blurOut" result="blurOut2" type="matrix" values="0 0 0 0 0 0 0 0 0 0 0 0 0 0 0 0 0 0 .4 0"/><feOffset dx="4.0" dy="4.0" in="blurOut2" result="blurOut3"/><feBlend in="SourceGraphic" in2="blurOut3" mode="normal"/></filter></defs><g><line style="stroke:#A80036;stroke-width:1.0;stroke-dasharray:5.0,5.0;" x1="70" x2="70" y1="40.2969" y2="555.5547"/><line style="stroke:#A80036;stroke-width:1.0;stroke-dasharray:5.0,5.0;" x1="214" x2="214" y1="40.2969" y2="555.5547"/><line style="stroke:#A80036;stroke-width:1.0;stroke-dasharray:5.0,5.0;" x1="412" x2="412" y1="40.2969" y2="555.5547"/><line style="stroke:#A80036;stroke-width:1.0;stroke-dasharray:5.0,5.0;" x1="851" x2="851" y1="40.2969" y2="555.5547"/><line style="stroke:#A80036;stroke-width:1.0;stroke-dasharray:5.0,5.0;" x1="1299" x2="1299" y1="40.2969" y2="555.5547"/><line style="stroke:#A80036;stroke-width:1.0;stroke-dasharray:5.0,5.0;" x1="1442" x2="1442" y1="40.2969" y2="555.5547"/><line style="stroke:#A80036;stroke-width:1.0;stroke-dasharray:5.0,5.0;" x1="1586" x2="1586" y1="40.2969" y2="555.5547"/><line style="stroke:#A80036;stroke-width:1.0;stroke-dasharray:5.0,5.0;" x1="1759" x2="1759" y1="40.2969" y2="555.5547"/><line style="stroke:#A80036;stroke-width:1.0;stroke-dasharray:5.0,5.0;" x1="1976" x2="1976" y1="40.2969" y2="555.5547"/><line style="stroke:#A80036;stroke-width:1.0;stroke-dasharray:5.0,5.0;" x1="2167" x2="2167" y1="40.2969" y2="555.5547"/><line style="stroke:#A80036;stroke-width:1.0;stroke-dasharray:5.0,5.0;" x1="2386.5" x2="2386.5" y1="40.2969" y2="555.5547"/><rect fill="#FEFECE" filter="url(#f5oeol8zxrkj8)" height="30.2969" style="stroke:#A80036;stroke-width:1.5;" width="126" x="5" y="5"/><text fill="#000000" font-family="sans-serif" font-size="14" lengthAdjust="spacing" textLength="112" x="12" y="24.9951">AcceptAllEvent</text><rect fill="#FEFECE" filter="url(#f5oeol8zxrkj8)" height="30.2969" style="stroke:#A80036;stroke-width:1.5;" width="126" x="5" y="554.5547"/><text fill="#000000" font-family="sans-serif" font-size="14" lengthAdjust="spacing" textLength="112" x="12" y="574.5498">AcceptAllEvent</text><rect fill="#FEFECE" filter="url(#f5oeol8zxrkj8)" height="30.2969" style="stroke:#A80036;stroke-width:1.5;" width="135" x="145" y="5"/><text fill="#000000" font-family="sans-serif" font-size="14" lengthAdjust="spacing" textLength="121" x="152" y="24.9951">EventDispatcher</text><rect fill="#FEFECE" filter="url(#f5oeol8zxrkj8)" height="30.2969" style="stroke:#A80036;stroke-width:1.5;" width="135" x="145" y="554.5547"/><text fill="#000000" font-family="sans-serif" font-size="14" lengthAdjust="spacing" textLength="121" x="152" y="574.5498">EventDispatcher</text><rect fill="#FEFECE" filter="url(#f5oeol8zxrkj8)" height="30.2969" style="stroke:#A80036;stroke-width:1.5;" width="232" x="294" y="5"/><text fill="#000000" font-family="sans-serif" font-size="14" lengthAdjust="spacing" textLength="218" x="301" y="24.9951">ConsentsGeneratorSubscriber</text><rect fill="#FEFECE" filter="url(#f5oeol8zxrkj8)" height="30.2969" style="stroke:#A80036;stroke-width:1.5;" width="232" x="294" y="554.5547"/><text fill="#000000" font-family="sans-serif" font-size="14" lengthAdjust="spacing" textLength="218" x="301" y="574.5498">ConsentsGeneratorSubscriber</text><rect fill="#FEFECE" filter="url(#f5oeol8zxrkj8)" height="30.2969" style="stroke:#A80036;stroke-width:1.5;" width="208" x="745" y="5"/><text fill="#000000" font-family="sans-serif" font-size="14" lengthAdjust="spacing" textLength="194" x="752" y="24.9951">ConsentsGeneratorService</text><rect fill="#FEFECE" filter="url(#f5oeol8zxrkj8)" height="30.2969" style="stroke:#A80036;stroke-width:1.5;" width="208" x="745" y="554.5547"/><text fill="#000000" font-family="sans-serif" font-size="14" lengthAdjust="spacing" textLength="194" x="752" y="574.5498">ConsentsGeneratorService</text><rect fill="#FEFECE" filter="url(#f5oeol8zxrkj8)" height="30.2969" style="stroke:#A80036;stroke-width:1.5;" width="128" x="1233" y="5"/><text fill="#000000" font-family="sans-serif" font-size="14" lengthAdjust="spacing" textLength="114" x="1240" y="24.9951">UIChoicesParser</text><rect fill="#FEFECE" filter="url(#f5oeol8zxrkj8)" height="30.2969" style="stroke:#A80036;stroke-width:1.5;" width="128" x="1233" y="554.5547"/><text fill="#000000" font-family="sans-serif" font-size="14" lengthAdjust="spacing" textLength="114" x="1240" y="574.5498">UIChoicesParser</text><rect fill="#FEFECE" filter="url(#f5oeol8zxrkj8)" height="30.2969" style="stroke:#A80036;stroke-width:1.5;" width="130" x="1375" y="5"/><text fill="#000000" font-family="sans-serif" font-size="14" lengthAdjust="spacing" textLength="116" x="1382" y="24.9951">TCStringService</text><rect fill="#FEFECE" filter="url(#f5oeol8zxrkj8)" height="30.2969" style="stroke:#A80036;stroke-width:1.5;" width="130" x="1375" y="554.5547"/><text fill="#000000" font-family="sans-serif" font-size="14" lengthAdjust="spacing" textLength="116" x="1382" y="574.5498">TCStringService</text><rect fill="#FEFECE" filter="url(#f5oeol8zxrkj8)" height="30.2969" style="stroke:#A80036;stroke-width:1.5;" width="131" x="1519" y="5"/><text fill="#000000" font-family="sans-serif" font-size="14" lengthAdjust="spacing" textLength="117" x="1526" y="24.9951">ACStringService</text><rect fill="#FEFECE" filter="url(#f5oeol8zxrkj8)" height="30.2969" style="stroke:#A80036;stroke-width:1.5;" width="131" x="1519" y="554.5547"/><text fill="#000000" font-family="sans-serif" font-size="14" lengthAdjust="spacing" textLength="117" x="1526" y="574.5498">ACStringService</text><rect fill="#FEFECE" filter="url(#f5oeol8zxrkj8)" height="30.2969" style="stroke:#A80036;stroke-width:1.5;" width="186" x="1664" y="5"/><text fill="#000000" font-family="sans-serif" font-size="14" lengthAdjust="spacing" textLength="172" x="1671" y="24.9951">CmpCallbackSubscriber</text><rect fill="#FEFECE" filter="url(#f5oeol8zxrkj8)" height="30.2969" style="stroke:#A80036;stroke-width:1.5;" width="186" x="1664" y="554.5547"/><text fill="#000000" font-family="sans-serif" font-size="14" lengthAdjust="spacing" textLength="172" x="1671" y="574.5498">CmpCallbackSubscriber</text><rect fill="#FEFECE" filter="url(#f5oeol8zxrkj8)" height="30.2969" style="stroke:#A80036;stroke-width:1.5;" width="206" x="1871" y="5"/><text fill="#000000" font-family="sans-serif" font-size="14" lengthAdjust="spacing" textLength="192" x="1878" y="24.9951">CmpConfigurationProvider</text><rect fill="#FEFECE" filter="url(#f5oeol8zxrkj8)" height="30.2969" style="stroke:#A80036;stroke-width:1.5;" width="206" x="1871" y="554.5547"/><text fill="#000000" font-family="sans-serif" font-size="14" lengthAdjust="spacing" textLength="192" x="1878" y="574.5498">CmpConfigurationProvider</text><rect fill="#FEFECE" filter="url(#f5oeol8zxrkj8)" height="30.2969" style="stroke:#A80036;stroke-width:1.5;" width="149" x="2091" y="5"/><text fill="#000000" font-family="sans-serif" font-size="14" lengthAdjust="spacing" textLength="135" x="2098" y="24.9951">CmpApiSubscriber</text><rect fill="#FEFECE" filter="url(#f5oeol8zxrkj8)" height="30.2969" style="stroke:#A80036;stroke-width:1.5;" width="149" x="2091" y="554.5547"/><text fill="#000000" font-family="sans-serif" font-size="14" lengthAdjust="spacing" textLength="135" x="2098" y="574.5498">CmpApiSubscriber</text><rect fill="#FEFECE" filter="url(#f5oeol8zxrkj8)" height="30.2969" style="stroke:#A80036;stroke-width:1.5;" width="132" x="2318.5" y="5"/><text fill="#000000" font-family="sans-serif" font-size="14" lengthAdjust="spacing" textLength="118" x="2325.5" y="24.9951">CmpApiProvider</text><rect fill="#FEFECE" filter="url(#f5oeol8zxrkj8)" height="30.2969" style="stroke:#A80036;stroke-width:1.5;" width="132" x="2318.5" y="554.5547"/><text fill="#000000" font-family="sans-serif" font-size="14" lengthAdjust="spacing" textLength="118" x="2325.5" y="574.5498">CmpApiProvider</text><polygon fill="#A80036" points="202.5,67.4297,212.5,71.4297,202.5,75.4297,206.5,71.4297" style="stroke:#A80036;stroke-width:1.0;"/><line style="stroke:#A80036;stroke-width:1.0;" x1="70" x2="208.5" y1="71.4297" y2="71.4297"/><text fill="#000000" font-family="sans-serif" font-size="13" lengthAdjust="spacing" textLength="56" x="77" y="66.3638">Dispatch</text><polygon fill="#A80036" points="400,96.5625,410,100.5625,400,104.5625,404,100.5625" style="stroke:#A80036;stroke-width:1.0;"/><line style="stroke:#A80036;stroke-width:1.0;" x1="214.5" x2="406" y1="100.5625" y2="100.5625"/><text fill="#000000" font-family="sans-serif" font-size="13" lengthAdjust="spacing" textLength="122" x="221.5" y="95.4966">onAcceptAll(event)</text><polygon fill="#A80036" points="839,125.6953,849,129.6953,839,133.6953,843,129.6953" style="stroke:#A80036;stroke-width:1.0;"/><line style="stroke:#A80036;stroke-width:1.0;" x1="412" x2="845" y1="129.6953" y2="129.6953"/><text fill="#000000" font-family="sans-serif" font-size="13" lengthAdjust="spacing" textLength="415" x="419" y="124.6294">generateAndPersistConsentWithAllEnabled(SoloCmpDataBundle)</text><polygon fill="#A80036" points="1287,154.8281,1297,158.8281,1287,162.8281,1291,158.8281" style="stroke:#A80036;stroke-width:1.0;"/><line style="stroke:#A80036;stroke-width:1.0;" x1="851" x2="1293" y1="158.8281" y2="158.8281"/><text fill="#000000" font-family="sans-serif" font-size="13" lengthAdjust="spacing" textLength="424" x="858" y="153.7622">new(SoloCmpDataBundle.TCModel, SoloCmpDataBundle.ACModel)</text><polygon fill="#A80036" points="1287,183.9609,1297,187.9609,1287,191.9609,1291,187.9609" style="stroke:#A80036;stroke-width:1.0;"/><line style="stroke:#A80036;stroke-width:1.0;" x1="851" x2="1293" y1="187.9609" y2="187.9609"/><text fill="#000000" font-family="sans-serif" font-size="13" lengthAdjust="spacing" textLength="342" x="858" y="182.895">buildTCModelAllEnabled(isLegitimateInterestDisabled)</text><polygon fill="#A80036" points="1287,213.0938,1297,217.0938,1287,221.0938,1291,217.0938" style="stroke:#A80036;stroke-width:1.0;"/><line style="stroke:#A80036;stroke-width:1.0;" x1="851" x2="1293" y1="217.0938" y2="217.0938"/><text fill="#000000" font-family="sans-serif" font-size="13" lengthAdjust="spacing" textLength="161" x="858" y="212.0278">buildACModelAllEnabled()</text><polygon fill="#A80036" points="225.5,242.2266,215.5,246.2266,225.5,250.2266,221.5,246.2266" style="stroke:#A80036;stroke-width:1.0;"/><line style="stroke:#A80036;stroke-width:1.0;" x1="219.5" x2="850" y1="246.2266" y2="246.2266"/><text fill="#000000" font-family="sans-serif" font-size="13" lengthAdjust="spacing" textLength="217" x="231.5" y="241.1606">dispatch(BeforeBuildStringsEvent)</text><polygon fill="#A80036" points="1430,271.3594,1440,275.3594,1430,279.3594,1434,275.3594" style="stroke:#A80036;stroke-width:1.0;"/><line style="stroke:#A80036;stroke-width:1.0;" x1="851" x2="1436" y1="275.3594" y2="275.3594"/><text fill="#000000" font-family="sans-serif" font-size="13" lengthAdjust="spacing" textLength="94" x="858" y="270.2935">buildTCString()</text><polygon fill="#A80036" points="1574.5,300.4922,1584.5,304.4922,1574.5,308.4922,1578.5,304.4922" style="stroke:#A80036;stroke-width:1.0;"/><line style="stroke:#A80036;stroke-width:1.0;" x1="851" x2="1580.5" y1="304.4922" y2="304.4922"/><text fill="#000000" font-family="sans-serif" font-size="13" lengthAdjust="spacing" textLength="95" x="858" y="299.4263">buildACString()</text><polygon fill="#A80036" points="225.5,329.625,215.5,333.625,225.5,337.625,221.5,333.625" style="stroke:#A80036;stroke-width:1.0;"/><line style="stroke:#A80036;stroke-width:1.0;" x1="219.5" x2="850" y1="333.625" y2="333.625"/><text fill="#000000" font-family="sans-serif" font-size="13" lengthAdjust="spacing" textLength="195" x="231.5" y="328.5591">dispatch(ConsentReadyEvent)</text><polygon fill="#A80036" points="1747,358.7578,1757,362.7578,1747,366.7578,1751,362.7578" style="stroke:#A80036;stroke-width:1.0;"/><line style="stroke:#A80036;stroke-width:1.0;" x1="214.5" x2="1753" y1="362.7578" y2="362.7578"/><text fill="#000000" font-family="sans-serif" font-size="13" lengthAdjust="spacing" textLength="157" x="221.5" y="357.6919">onConsentReady(event)</text><polygon fill="#A80036" points="1964,387.8906,1974,391.8906,1964,395.8906,1968,391.8906" style="stroke:#A80036;stroke-width:1.0;"/><line style="stroke:#A80036;stroke-width:1.0;" x1="1759" x2="1970" y1="391.8906" y2="391.8906"/><text fill="#000000" font-family="sans-serif" font-size="13" lengthAdjust="spacing" textLength="193" x="1766" y="386.8247">onConsentAdsCallBack(event)</text><polygon fill="#A80036" points="2155.5,417.0234,2165.5,421.0234,2155.5,425.0234,2159.5,421.0234" style="stroke:#A80036;stroke-width:1.0;"/><line style="stroke:#A80036;stroke-width:1.0;" x1="214.5" x2="2161.5" y1="421.0234" y2="421.0234"/><text fill="#000000" font-family="sans-serif" font-size="13" lengthAdjust="spacing" textLength="157" x="221.5" y="415.9575">onConsentReady(event)</text><polygon fill="#A80036" points="2374.5,446.1563,2384.5,450.1563,2374.5,454.1563,2378.5,450.1563" style="stroke:#A80036;stroke-width:1.0;"/><line style="stroke:#A80036;stroke-width:1.0;" x1="2167.5" x2="2380.5" y1="450.1563" y2="450.1563"/><text fill="#000000" font-family="sans-serif" font-size="13" lengthAdjust="spacing" textLength="195" x="2174.5" y="445.0903">cmpApi.update(tcString, false)</text><polygon fill="#A80036" points="1430,475.2891,1440,479.2891,1430,483.2891,1434,479.2891" style="stroke:#A80036;stroke-width:1.0;"/><line style="stroke:#A80036;stroke-width:1.0;" x1="851" x2="1436" y1="479.2891" y2="479.2891"/><text fill="#000000" font-family="sans-serif" font-size="13" lengthAdjust="spacing" textLength="156" x="858" y="474.2231">persistTCString(tcString)</text><polygon fill="#A80036" points="1574.5,504.4219,1584.5,508.4219,1574.5,512.4219,1578.5,508.4219" style="stroke:#A80036;stroke-width:1.0;"/><line style="stroke:#A80036;stroke-width:1.0;" x1="851" x2="1580.5" y1="508.4219" y2="508.4219"/><text fill="#000000" font-family="sans-serif" font-size="13" lengthAdjust="spacing" textLength="160" x="858" y="503.356">persistACString(acString)</text><polygon fill="#A80036" points="225.5,533.5547,215.5,537.5547,225.5,541.5547,221.5,537.5547" style="stroke:#A80036;stroke-width:1.0;"/><line style="stroke:#A80036;stroke-width:1.0;" x1="219.5" x2="850" y1="537.5547" y2="537.5547"/><text fill="#000000" font-family="sans-serif" font-size="13" lengthAdjust="spacing" textLength="213" x="231.5" y="532.4888">dispatch(ConsentPersistedEvent)</text><!--MD5=[f16524ef3653a8c74a635fddfc319a0a]
@startuml
AcceptAllEvent -> EventDispatcher: Dispatch
EventDispatcher -> ConsentsGeneratorSubscriber : onAcceptAll(event)
ConsentsGeneratorSubscriber -> ConsentsGeneratorService : generateAndPersistConsentWithAllEnabled(SoloCmpDataBundle)
ConsentsGeneratorService -> UIChoicesParser : new(SoloCmpDataBundle.TCModel, SoloCmpDataBundle.ACModel)
ConsentsGeneratorService -> UIChoicesParser : buildTCModelAllEnabled(isLegitimateInterestDisabled)
ConsentsGeneratorService -> UIChoicesParser : buildACModelAllEnabled()
ConsentsGeneratorService -> EventDispatcher : dispatch(BeforeBuildStringsEvent)
ConsentsGeneratorService -> TCStringService : buildTCString()
ConsentsGeneratorService -> ACStringService : buildACString()
ConsentsGeneratorService -> EventDispatcher : dispatch(ConsentReadyEvent)
EventDispatcher -> CmpCallbackSubscriber : onConsentReady(event)
CmpCallbackSubscriber -> CmpConfigurationProvider : onConsentAdsCallBack(event)
EventDispatcher -> CmpApiSubscriber : onConsentReady(event)
CmpApiSubscriber -> CmpApiProvider : cmpApi.update(tcString, false)
ConsentsGeneratorService -> TCStringService : persistTCString(tcString)
ConsentsGeneratorService -> ACStringService : persistACString(acString)
ConsentsGeneratorService -> EventDispatcher : dispatch(ConsentPersistedEvent)
@enduml

PlantUML version 1.2021.17beta3(Unknown compile time)
(GPL source distribution)
Java Runtime: Java(TM) SE Runtime Environment
JVM: Java HotSpot(TM) 64-Bit Server VM
Default Encoding: UTF-8
Language: en
Country: US
--></g></svg>