<?xml version="1.0" encoding="UTF-8" standalone="no"?><svg xmlns="http://www.w3.org/2000/svg" xmlns:xlink="http://www.w3.org/1999/xlink" contentScriptType="application/ecmascript" contentStyleType="text/css" height="598px" preserveAspectRatio="none" style="width:2749px;height:598px;background:#FFFFFF;" version="1.1" viewBox="0 0 2749 598" width="2749px" zoomAndPan="magnify"><defs><filter height="300%" id="fwwl07gqy86yp" width="300%" x="-1" y="-1"><feGaussianBlur result="blurOut" stdDeviation="2.0"/><feColorMatrix in="blurOut" result="blurOut2" type="matrix" values="0 0 0 0 0 0 0 0 0 0 0 0 0 0 0 0 0 0 .4 0"/><feOffset dx="4.0" dy="4.0" in="blurOut2" result="blurOut3"/><feBlend in="SourceGraphic" in2="blurOut3" mode="normal"/></filter></defs><g><line style="stroke:#A80036;stroke-width:1.0;stroke-dasharray:5.0,5.0;" x1="86" x2="86" y1="40.2969" y2="555.5547"/><line style="stroke:#A80036;stroke-width:1.0;stroke-dasharray:5.0,5.0;" x1="246" x2="246" y1="40.2969" y2="555.5547"/><line style="stroke:#A80036;stroke-width:1.0;stroke-dasharray:5.0,5.0;" x1="444" x2="444" y1="40.2969" y2="555.5547"/><line style="stroke:#A80036;stroke-width:1.0;stroke-dasharray:5.0,5.0;" x1="921" x2="921" y1="40.2969" y2="555.5547"/><line style="stroke:#A80036;stroke-width:1.0;stroke-dasharray:5.0,5.0;" x1="1368.5" x2="1368.5" y1="40.2969" y2="555.5547"/><line style="stroke:#A80036;stroke-width:1.0;stroke-dasharray:5.0,5.0;" x1="1505.5" x2="1505.5" y1="40.2969" y2="555.5547"/><line style="stroke:#A80036;stroke-width:1.0;stroke-dasharray:5.0,5.0;" x1="1649.5" x2="1649.5" y1="40.2969" y2="555.5547"/><line style="stroke:#A80036;stroke-width:1.0;stroke-dasharray:5.0,5.0;" x1="1822.5" x2="1822.5" y1="40.2969" y2="555.5547"/><line style="stroke:#A80036;stroke-width:1.0;stroke-dasharray:5.0,5.0;" x1="2039.5" x2="2039.5" y1="40.2969" y2="555.5547"/><line style="stroke:#A80036;stroke-width:1.0;stroke-dasharray:5.0,5.0;" x1="2230.5" x2="2230.5" y1="40.2969" y2="555.5547"/><line style="stroke:#A80036;stroke-width:1.0;stroke-dasharray:5.0,5.0;" x1="2450" x2="2450" y1="40.2969" y2="555.5547"/><line style="stroke:#A80036;stroke-width:1.0;stroke-dasharray:5.0,5.0;" x1="2633" x2="2633" y1="40.2969" y2="555.5547"/><rect fill="#FEFECE" filter="url(#fwwl07gqy86yp)" height="30.2969" style="stroke:#A80036;stroke-width:1.5;" width="158" x="5" y="5"/><text fill="#000000" font-family="sans-serif" font-size="14" lengthAdjust="spacing" textLength="144" x="12" y="24.9951">ApplyConsentEvent</text><rect fill="#FEFECE" filter="url(#fwwl07gqy86yp)" height="30.2969" style="stroke:#A80036;stroke-width:1.5;" width="158" x="5" y="554.5547"/><text fill="#000000" font-family="sans-serif" font-size="14" lengthAdjust="spacing" textLength="144" x="12" y="574.5498">ApplyConsentEvent</text><rect fill="#FEFECE" filter="url(#fwwl07gqy86yp)" height="30.2969" style="stroke:#A80036;stroke-width:1.5;" width="135" x="177" y="5"/><text fill="#000000" font-family="sans-serif" font-size="14" lengthAdjust="spacing" textLength="121" x="184" y="24.9951">EventDispatcher</text><rect fill="#FEFECE" filter="url(#fwwl07gqy86yp)" height="30.2969" style="stroke:#A80036;stroke-width:1.5;" width="135" x="177" y="554.5547"/><text fill="#000000" font-family="sans-serif" font-size="14" lengthAdjust="spacing" textLength="121" x="184" y="574.5498">EventDispatcher</text><rect fill="#FEFECE" filter="url(#fwwl07gqy86yp)" height="30.2969" style="stroke:#A80036;stroke-width:1.5;" width="232" x="326" y="5"/><text fill="#000000" font-family="sans-serif" font-size="14" lengthAdjust="spacing" textLength="218" x="333" y="24.9951">ConsentsGeneratorSubscriber</text><rect fill="#FEFECE" filter="url(#fwwl07gqy86yp)" height="30.2969" style="stroke:#A80036;stroke-width:1.5;" width="232" x="326" y="554.5547"/><text fill="#000000" font-family="sans-serif" font-size="14" lengthAdjust="spacing" textLength="218" x="333" y="574.5498">ConsentsGeneratorSubscriber</text><rect fill="#FEFECE" filter="url(#fwwl07gqy86yp)" height="30.2969" style="stroke:#A80036;stroke-width:1.5;" width="208" x="815" y="5"/><text fill="#000000" font-family="sans-serif" font-size="14" lengthAdjust="spacing" textLength="194" x="822" y="24.9951">ConsentsGeneratorService</text><rect fill="#FEFECE" filter="url(#fwwl07gqy86yp)" height="30.2969" style="stroke:#A80036;stroke-width:1.5;" width="208" x="815" y="554.5547"/><text fill="#000000" font-family="sans-serif" font-size="14" lengthAdjust="spacing" textLength="194" x="822" y="574.5498">ConsentsGeneratorService</text><rect fill="#FEFECE" filter="url(#fwwl07gqy86yp)" height="30.2969" style="stroke:#A80036;stroke-width:1.5;" width="115" x="1309.5" y="5"/><text fill="#000000" font-family="sans-serif" font-size="14" lengthAdjust="spacing" textLength="101" x="1316.5" y="24.9951">ChoicesParser</text><rect fill="#FEFECE" filter="url(#fwwl07gqy86yp)" height="30.2969" style="stroke:#A80036;stroke-width:1.5;" width="115" x="1309.5" y="554.5547"/><text fill="#000000" font-family="sans-serif" font-size="14" lengthAdjust="spacing" textLength="101" x="1316.5" y="574.5498">ChoicesParser</text><rect fill="#FEFECE" filter="url(#fwwl07gqy86yp)" height="30.2969" style="stroke:#A80036;stroke-width:1.5;" width="130" x="1438.5" y="5"/><text fill="#000000" font-family="sans-serif" font-size="14" lengthAdjust="spacing" textLength="116" x="1445.5" y="24.9951">TCStringService</text><rect fill="#FEFECE" filter="url(#fwwl07gqy86yp)" height="30.2969" style="stroke:#A80036;stroke-width:1.5;" width="130" x="1438.5" y="554.5547"/><text fill="#000000" font-family="sans-serif" font-size="14" lengthAdjust="spacing" textLength="116" x="1445.5" y="574.5498">TCStringService</text><rect fill="#FEFECE" filter="url(#fwwl07gqy86yp)" height="30.2969" style="stroke:#A80036;stroke-width:1.5;" width="131" x="1582.5" y="5"/><text fill="#000000" font-family="sans-serif" font-size="14" lengthAdjust="spacing" textLength="117" x="1589.5" y="24.9951">ACStringService</text><rect fill="#FEFECE" filter="url(#fwwl07gqy86yp)" height="30.2969" style="stroke:#A80036;stroke-width:1.5;" width="131" x="1582.5" y="554.5547"/><text fill="#000000" font-family="sans-serif" font-size="14" lengthAdjust="spacing" textLength="117" x="1589.5" y="574.5498">ACStringService</text><rect fill="#FEFECE" filter="url(#fwwl07gqy86yp)" height="30.2969" style="stroke:#A80036;stroke-width:1.5;" width="186" x="1727.5" y="5"/><text fill="#000000" font-family="sans-serif" font-size="14" lengthAdjust="spacing" textLength="172" x="1734.5" y="24.9951">CmpCallbackSubscriber</text><rect fill="#FEFECE" filter="url(#fwwl07gqy86yp)" height="30.2969" style="stroke:#A80036;stroke-width:1.5;" width="186" x="1727.5" y="554.5547"/><text fill="#000000" font-family="sans-serif" font-size="14" lengthAdjust="spacing" textLength="172" x="1734.5" y="574.5498">CmpCallbackSubscriber</text><rect fill="#FEFECE" filter="url(#fwwl07gqy86yp)" height="30.2969" style="stroke:#A80036;stroke-width:1.5;" width="206" x="1934.5" y="5"/><text fill="#000000" font-family="sans-serif" font-size="14" lengthAdjust="spacing" textLength="192" x="1941.5" y="24.9951">CmpConfigurationProvider</text><rect fill="#FEFECE" filter="url(#fwwl07gqy86yp)" height="30.2969" style="stroke:#A80036;stroke-width:1.5;" width="206" x="1934.5" y="554.5547"/><text fill="#000000" font-family="sans-serif" font-size="14" lengthAdjust="spacing" textLength="192" x="1941.5" y="574.5498">CmpConfigurationProvider</text><rect fill="#FEFECE" filter="url(#fwwl07gqy86yp)" height="30.2969" style="stroke:#A80036;stroke-width:1.5;" width="149" x="2154.5" y="5"/><text fill="#000000" font-family="sans-serif" font-size="14" lengthAdjust="spacing" textLength="135" x="2161.5" y="24.9951">CmpApiSubscriber</text><rect fill="#FEFECE" filter="url(#fwwl07gqy86yp)" height="30.2969" style="stroke:#A80036;stroke-width:1.5;" width="149" x="2154.5" y="554.5547"/><text fill="#000000" font-family="sans-serif" font-size="14" lengthAdjust="spacing" textLength="135" x="2161.5" y="574.5498">CmpApiSubscriber</text><rect fill="#FEFECE" filter="url(#fwwl07gqy86yp)" height="30.2969" style="stroke:#A80036;stroke-width:1.5;" width="132" x="2382" y="5"/><text fill="#000000" font-family="sans-serif" font-size="14" lengthAdjust="spacing" textLength="118" x="2389" y="24.9951">CmpApiProvider</text><rect fill="#FEFECE" filter="url(#fwwl07gqy86yp)" height="30.2969" style="stroke:#A80036;stroke-width:1.5;" width="132" x="2382" y="554.5547"/><text fill="#000000" font-family="sans-serif" font-size="14" lengthAdjust="spacing" textLength="118" x="2389" y="574.5498">CmpApiProvider</text><rect fill="#FEFECE" filter="url(#fwwl07gqy86yp)" height="30.2969" style="stroke:#A80036;stroke-width:1.5;" width="207" x="2528" y="5"/><text fill="#000000" font-family="sans-serif" font-size="14" lengthAdjust="spacing" textLength="193" x="2535" y="24.9951">ConsentsPersistSubscriber</text><rect fill="#FEFECE" filter="url(#fwwl07gqy86yp)" height="30.2969" style="stroke:#A80036;stroke-width:1.5;" width="207" x="2528" y="554.5547"/><text fill="#000000" font-family="sans-serif" font-size="14" lengthAdjust="spacing" textLength="193" x="2535" y="574.5498">ConsentsPersistSubscriber</text><polygon fill="#A80036" points="234.5,67.4297,244.5,71.4297,234.5,75.4297,238.5,71.4297" style="stroke:#A80036;stroke-width:1.0;"/><line style="stroke:#A80036;stroke-width:1.0;" x1="86" x2="240.5" y1="71.4297" y2="71.4297"/><text fill="#000000" font-family="sans-serif" font-size="13" lengthAdjust="spacing" textLength="56" x="93" y="66.3638">Dispatch</text><polygon fill="#A80036" points="432,96.5625,442,100.5625,432,104.5625,436,100.5625" style="stroke:#A80036;stroke-width:1.0;"/><line style="stroke:#A80036;stroke-width:1.0;" x1="246.5" x2="438" y1="100.5625" y2="100.5625"/><text fill="#000000" font-family="sans-serif" font-size="13" lengthAdjust="spacing" textLength="152" x="253.5" y="95.4966">onApplyConsent(event)</text><polygon fill="#A80036" points="909,125.6953,919,129.6953,909,133.6953,913,129.6953" style="stroke:#A80036;stroke-width:1.0;"/><line style="stroke:#A80036;stroke-width:1.0;" x1="444" x2="915" y1="129.6953" y2="129.6953"/><text fill="#000000" font-family="sans-serif" font-size="13" lengthAdjust="spacing" textLength="453" x="451" y="124.6294">generateAndPersistConsent(UIChoicesBridgeDto, SoloCmpDataBundle)</text><polygon fill="#A80036" points="1357,154.8281,1367,158.8281,1357,162.8281,1361,158.8281" style="stroke:#A80036;stroke-width:1.0;"/><line style="stroke:#A80036;stroke-width:1.0;" x1="921" x2="1363" y1="158.8281" y2="158.8281"/><text fill="#000000" font-family="sans-serif" font-size="13" lengthAdjust="spacing" textLength="424" x="928" y="153.7622">new(SoloCmpDataBundle.TCModel, SoloCmpDataBundle.ACModel)</text><polygon fill="#A80036" points="1357,183.9609,1367,187.9609,1357,191.9609,1361,187.9609" style="stroke:#A80036;stroke-width:1.0;"/><line style="stroke:#A80036;stroke-width:1.0;" x1="921" x2="1363" y1="187.9609" y2="187.9609"/><text fill="#000000" font-family="sans-serif" font-size="13" lengthAdjust="spacing" textLength="225" x="928" y="182.895">parseTCModel(UIChoicesBridgeDto)</text><polygon fill="#A80036" points="1357,213.0938,1367,217.0938,1357,221.0938,1361,217.0938" style="stroke:#A80036;stroke-width:1.0;"/><line style="stroke:#A80036;stroke-width:1.0;" x1="921" x2="1363" y1="217.0938" y2="217.0938"/><text fill="#000000" font-family="sans-serif" font-size="13" lengthAdjust="spacing" textLength="226" x="928" y="212.0278">parseACModel(UIChoicesBridgeDto)</text><polygon fill="#A80036" points="1493.5,242.2266,1503.5,246.2266,1493.5,250.2266,1497.5,246.2266" style="stroke:#A80036;stroke-width:1.0;"/><line style="stroke:#A80036;stroke-width:1.0;" x1="921" x2="1499.5" y1="246.2266" y2="246.2266"/><text fill="#000000" font-family="sans-serif" font-size="13" lengthAdjust="spacing" textLength="143" x="928" y="241.1606">buildTCString(tcModel)</text><polygon fill="#A80036" points="1638,271.3594,1648,275.3594,1638,279.3594,1642,275.3594" style="stroke:#A80036;stroke-width:1.0;"/><line style="stroke:#A80036;stroke-width:1.0;" x1="921" x2="1644" y1="275.3594" y2="275.3594"/><text fill="#000000" font-family="sans-serif" font-size="13" lengthAdjust="spacing" textLength="147" x="928" y="270.2935">buildACString(acModel)</text><polygon fill="#A80036" points="257.5,300.4922,247.5,304.4922,257.5,308.4922,253.5,304.4922" style="stroke:#A80036;stroke-width:1.0;"/><line style="stroke:#A80036;stroke-width:1.0;" x1="251.5" x2="920" y1="304.4922" y2="304.4922"/><text fill="#000000" font-family="sans-serif" font-size="13" lengthAdjust="spacing" textLength="195" x="263.5" y="299.4263">dispatch(ConsentReadyEvent)</text><polygon fill="#A80036" points="1810.5,329.625,1820.5,333.625,1810.5,337.625,1814.5,333.625" style="stroke:#A80036;stroke-width:1.0;"/><line style="stroke:#A80036;stroke-width:1.0;" x1="246.5" x2="1816.5" y1="333.625" y2="333.625"/><text fill="#000000" font-family="sans-serif" font-size="13" lengthAdjust="spacing" textLength="157" x="253.5" y="328.5591">onConsentReady(event)</text><polygon fill="#A80036" points="2027.5,358.7578,2037.5,362.7578,2027.5,366.7578,2031.5,362.7578" style="stroke:#A80036;stroke-width:1.0;"/><line style="stroke:#A80036;stroke-width:1.0;" x1="1822.5" x2="2033.5" y1="362.7578" y2="362.7578"/><text fill="#000000" font-family="sans-serif" font-size="13" lengthAdjust="spacing" textLength="193" x="1829.5" y="357.6919">onConsentAdsCallBack(event)</text><polygon fill="#A80036" points="2219,387.8906,2229,391.8906,2219,395.8906,2223,391.8906" style="stroke:#A80036;stroke-width:1.0;"/><line style="stroke:#A80036;stroke-width:1.0;" x1="246.5" x2="2225" y1="391.8906" y2="391.8906"/><text fill="#000000" font-family="sans-serif" font-size="13" lengthAdjust="spacing" textLength="157" x="253.5" y="386.8247">onConsentReady(event)</text><polygon fill="#A80036" points="2438,417.0234,2448,421.0234,2438,425.0234,2442,421.0234" style="stroke:#A80036;stroke-width:1.0;"/><line style="stroke:#A80036;stroke-width:1.0;" x1="2231" x2="2444" y1="421.0234" y2="421.0234"/><text fill="#000000" font-family="sans-serif" font-size="13" lengthAdjust="spacing" textLength="195" x="2238" y="415.9575">cmpApi.update(tcString, false)</text><polygon fill="#A80036" points="257.5,446.1563,247.5,450.1563,257.5,454.1563,253.5,450.1563" style="stroke:#A80036;stroke-width:1.0;"/><line style="stroke:#A80036;stroke-width:1.0;" x1="251.5" x2="920" y1="450.1563" y2="450.1563"/><text fill="#000000" font-family="sans-serif" font-size="13" lengthAdjust="spacing" textLength="197" x="263.5" y="445.0903">dispatch(ConsentPersistEvent)</text><polygon fill="#A80036" points="2621.5,475.2891,2631.5,479.2891,2621.5,483.2891,2625.5,479.2891" style="stroke:#A80036;stroke-width:1.0;"/><line style="stroke:#A80036;stroke-width:1.0;" x1="246.5" x2="2627.5" y1="479.2891" y2="479.2891"/><text fill="#000000" font-family="sans-serif" font-size="13" lengthAdjust="spacing" textLength="159" x="253.5" y="474.2231">onConsentPersist(event)</text><polygon fill="#A80036" points="1516.5,504.4219,1506.5,508.4219,1516.5,512.4219,1512.5,508.4219" style="stroke:#A80036;stroke-width:1.0;"/><line style="stroke:#A80036;stroke-width:1.0;" x1="1510.5" x2="2632.5" y1="508.4219" y2="508.4219"/><text fill="#000000" font-family="sans-serif" font-size="13" lengthAdjust="spacing" textLength="156" x="1522.5" y="503.356">persistTCString(tcString)</text><polygon fill="#A80036" points="1661,533.5547,1651,537.5547,1661,541.5547,1657,537.5547" style="stroke:#A80036;stroke-width:1.0;"/><line style="stroke:#A80036;stroke-width:1.0;" x1="1655" x2="2632.5" y1="537.5547" y2="537.5547"/><text fill="#000000" font-family="sans-serif" font-size="13" lengthAdjust="spacing" textLength="160" x="1667" y="532.4888">persistACString(acString)</text><!--MD5=[7d0fcf18430564fa37ebf5db2d852193]
@startuml
ApplyConsentEvent -> EventDispatcher: Dispatch
EventDispatcher -> ConsentsGeneratorSubscriber : onApplyConsent(event)
ConsentsGeneratorSubscriber -> ConsentsGeneratorService : generateAndPersistConsent(UIChoicesBridgeDto, SoloCmpDataBundle)
ConsentsGeneratorService -> ChoicesParser : new(SoloCmpDataBundle.TCModel, SoloCmpDataBundle.ACModel)
ConsentsGeneratorService -> ChoicesParser : parseTCModel(UIChoicesBridgeDto)
ConsentsGeneratorService -> ChoicesParser : parseACModel(UIChoicesBridgeDto)
ConsentsGeneratorService -> TCStringService : buildTCString(tcModel)
ConsentsGeneratorService -> ACStringService : buildACString(acModel)
ConsentsGeneratorService -> EventDispatcher : dispatch(ConsentReadyEvent)
EventDispatcher -> CmpCallbackSubscriber : onConsentReady(event)
CmpCallbackSubscriber -> CmpConfigurationProvider : onConsentAdsCallBack(event)
EventDispatcher -> CmpApiSubscriber : onConsentReady(event)
CmpApiSubscriber -> CmpApiProvider : cmpApi.update(tcString, false)
ConsentsGeneratorService -> EventDispatcher : dispatch(ConsentPersistEvent)
EventDispatcher -> ConsentsPersistSubscriber : onConsentPersist(event)
ConsentsPersistSubscriber -> TCStringService : persistTCString(tcString)
ConsentsPersistSubscriber -> ACStringService : persistACString(acString)
@enduml

PlantUML version 1.2021.9beta2(Unknown compile time)
(GPL source distribution)
Java Runtime: Java(TM) SE Runtime Environment
JVM: Java HotSpot(TM) 64-Bit Server VM
Default Encoding: UTF-8
Language: en
Country: US
--></g></svg>