<?xml version="1.0" encoding="UTF-8" standalone="no"?><svg xmlns="http://www.w3.org/2000/svg" xmlns:xlink="http://www.w3.org/1999/xlink" contentScriptType="application/ecmascript" contentStyleType="text/css" height="598px" preserveAspectRatio="none" style="width:2534px;height:598px;background:#FFFFFF;" version="1.1" viewBox="0 0 2534 598" width="2534px" zoomAndPan="magnify"><defs><filter height="300%" id="fpwt3wydbrq07" width="300%" x="-1" y="-1"><feGaussianBlur result="blurOut" stdDeviation="2.0"/><feColorMatrix in="blurOut" result="blurOut2" type="matrix" values="0 0 0 0 0 0 0 0 0 0 0 0 0 0 0 0 0 0 .4 0"/><feOffset dx="4.0" dy="4.0" in="blurOut2" result="blurOut3"/><feBlend in="SourceGraphic" in2="blurOut3" mode="normal"/></filter></defs><g><line style="stroke:#A80036;stroke-width:1.0;stroke-dasharray:5.0,5.0;" x1="86" x2="86" y1="40.2969" y2="555.5547"/><line style="stroke:#A80036;stroke-width:1.0;stroke-dasharray:5.0,5.0;" x1="246" x2="246" y1="40.2969" y2="555.5547"/><line style="stroke:#A80036;stroke-width:1.0;stroke-dasharray:5.0,5.0;" x1="444" x2="444" y1="40.2969" y2="555.5547"/><line style="stroke:#A80036;stroke-width:1.0;stroke-dasharray:5.0,5.0;" x1="921" x2="921" y1="40.2969" y2="555.5547"/><line style="stroke:#A80036;stroke-width:1.0;stroke-dasharray:5.0,5.0;" x1="1369" x2="1369" y1="40.2969" y2="555.5547"/><line style="stroke:#A80036;stroke-width:1.0;stroke-dasharray:5.0,5.0;" x1="1512" x2="1512" y1="40.2969" y2="555.5547"/><line style="stroke:#A80036;stroke-width:1.0;stroke-dasharray:5.0,5.0;" x1="1656" x2="1656" y1="40.2969" y2="555.5547"/><line style="stroke:#A80036;stroke-width:1.0;stroke-dasharray:5.0,5.0;" x1="1829" x2="1829" y1="40.2969" y2="555.5547"/><line style="stroke:#A80036;stroke-width:1.0;stroke-dasharray:5.0,5.0;" x1="2046" x2="2046" y1="40.2969" y2="555.5547"/><line style="stroke:#A80036;stroke-width:1.0;stroke-dasharray:5.0,5.0;" x1="2237" x2="2237" y1="40.2969" y2="555.5547"/><line style="stroke:#A80036;stroke-width:1.0;stroke-dasharray:5.0,5.0;" x1="2456.5" x2="2456.5" y1="40.2969" y2="555.5547"/><rect fill="#FEFECE" filter="url(#fpwt3wydbrq07)" height="30.2969" style="stroke:#A80036;stroke-width:1.5;" width="158" x="5" y="5"/><text fill="#000000" font-family="sans-serif" font-size="14" lengthAdjust="spacing" textLength="144" x="12" y="24.9951">ApplyConsentEvent</text><rect fill="#FEFECE" filter="url(#fpwt3wydbrq07)" height="30.2969" style="stroke:#A80036;stroke-width:1.5;" width="158" x="5" y="554.5547"/><text fill="#000000" font-family="sans-serif" font-size="14" lengthAdjust="spacing" textLength="144" x="12" y="574.5498">ApplyConsentEvent</text><rect fill="#FEFECE" filter="url(#fpwt3wydbrq07)" height="30.2969" style="stroke:#A80036;stroke-width:1.5;" width="135" x="177" y="5"/><text fill="#000000" font-family="sans-serif" font-size="14" lengthAdjust="spacing" textLength="121" x="184" y="24.9951">EventDispatcher</text><rect fill="#FEFECE" filter="url(#fpwt3wydbrq07)" height="30.2969" style="stroke:#A80036;stroke-width:1.5;" width="135" x="177" y="554.5547"/><text fill="#000000" font-family="sans-serif" font-size="14" lengthAdjust="spacing" textLength="121" x="184" y="574.5498">EventDispatcher</text><rect fill="#FEFECE" filter="url(#fpwt3wydbrq07)" height="30.2969" style="stroke:#A80036;stroke-width:1.5;" width="232" x="326" y="5"/><text fill="#000000" font-family="sans-serif" font-size="14" lengthAdjust="spacing" textLength="218" x="333" y="24.9951">ConsentsGeneratorSubscriber</text><rect fill="#FEFECE" filter="url(#fpwt3wydbrq07)" height="30.2969" style="stroke:#A80036;stroke-width:1.5;" width="232" x="326" y="554.5547"/><text fill="#000000" font-family="sans-serif" font-size="14" lengthAdjust="spacing" textLength="218" x="333" y="574.5498">ConsentsGeneratorSubscriber</text><rect fill="#FEFECE" filter="url(#fpwt3wydbrq07)" height="30.2969" style="stroke:#A80036;stroke-width:1.5;" width="208" x="815" y="5"/><text fill="#000000" font-family="sans-serif" font-size="14" lengthAdjust="spacing" textLength="194" x="822" y="24.9951">ConsentsGeneratorService</text><rect fill="#FEFECE" filter="url(#fpwt3wydbrq07)" height="30.2969" style="stroke:#A80036;stroke-width:1.5;" width="208" x="815" y="554.5547"/><text fill="#000000" font-family="sans-serif" font-size="14" lengthAdjust="spacing" textLength="194" x="822" y="574.5498">ConsentsGeneratorService</text><rect fill="#FEFECE" filter="url(#fpwt3wydbrq07)" height="30.2969" style="stroke:#A80036;stroke-width:1.5;" width="128" x="1303" y="5"/><text fill="#000000" font-family="sans-serif" font-size="14" lengthAdjust="spacing" textLength="114" x="1310" y="24.9951">UIChoicesParser</text><rect fill="#FEFECE" filter="url(#fpwt3wydbrq07)" height="30.2969" style="stroke:#A80036;stroke-width:1.5;" width="128" x="1303" y="554.5547"/><text fill="#000000" font-family="sans-serif" font-size="14" lengthAdjust="spacing" textLength="114" x="1310" y="574.5498">UIChoicesParser</text><rect fill="#FEFECE" filter="url(#fpwt3wydbrq07)" height="30.2969" style="stroke:#A80036;stroke-width:1.5;" width="130" x="1445" y="5"/><text fill="#000000" font-family="sans-serif" font-size="14" lengthAdjust="spacing" textLength="116" x="1452" y="24.9951">TCStringService</text><rect fill="#FEFECE" filter="url(#fpwt3wydbrq07)" height="30.2969" style="stroke:#A80036;stroke-width:1.5;" width="130" x="1445" y="554.5547"/><text fill="#000000" font-family="sans-serif" font-size="14" lengthAdjust="spacing" textLength="116" x="1452" y="574.5498">TCStringService</text><rect fill="#FEFECE" filter="url(#fpwt3wydbrq07)" height="30.2969" style="stroke:#A80036;stroke-width:1.5;" width="131" x="1589" y="5"/><text fill="#000000" font-family="sans-serif" font-size="14" lengthAdjust="spacing" textLength="117" x="1596" y="24.9951">ACStringService</text><rect fill="#FEFECE" filter="url(#fpwt3wydbrq07)" height="30.2969" style="stroke:#A80036;stroke-width:1.5;" width="131" x="1589" y="554.5547"/><text fill="#000000" font-family="sans-serif" font-size="14" lengthAdjust="spacing" textLength="117" x="1596" y="574.5498">ACStringService</text><rect fill="#FEFECE" filter="url(#fpwt3wydbrq07)" height="30.2969" style="stroke:#A80036;stroke-width:1.5;" width="186" x="1734" y="5"/><text fill="#000000" font-family="sans-serif" font-size="14" lengthAdjust="spacing" textLength="172" x="1741" y="24.9951">CmpCallbackSubscriber</text><rect fill="#FEFECE" filter="url(#fpwt3wydbrq07)" height="30.2969" style="stroke:#A80036;stroke-width:1.5;" width="186" x="1734" y="554.5547"/><text fill="#000000" font-family="sans-serif" font-size="14" lengthAdjust="spacing" textLength="172" x="1741" y="574.5498">CmpCallbackSubscriber</text><rect fill="#FEFECE" filter="url(#fpwt3wydbrq07)" height="30.2969" style="stroke:#A80036;stroke-width:1.5;" width="206" x="1941" y="5"/><text fill="#000000" font-family="sans-serif" font-size="14" lengthAdjust="spacing" textLength="192" x="1948" y="24.9951">CmpConfigurationProvider</text><rect fill="#FEFECE" filter="url(#fpwt3wydbrq07)" height="30.2969" style="stroke:#A80036;stroke-width:1.5;" width="206" x="1941" y="554.5547"/><text fill="#000000" font-family="sans-serif" font-size="14" lengthAdjust="spacing" textLength="192" x="1948" y="574.5498">CmpConfigurationProvider</text><rect fill="#FEFECE" filter="url(#fpwt3wydbrq07)" height="30.2969" style="stroke:#A80036;stroke-width:1.5;" width="149" x="2161" y="5"/><text fill="#000000" font-family="sans-serif" font-size="14" lengthAdjust="spacing" textLength="135" x="2168" y="24.9951">CmpApiSubscriber</text><rect fill="#FEFECE" filter="url(#fpwt3wydbrq07)" height="30.2969" style="stroke:#A80036;stroke-width:1.5;" width="149" x="2161" y="554.5547"/><text fill="#000000" font-family="sans-serif" font-size="14" lengthAdjust="spacing" textLength="135" x="2168" y="574.5498">CmpApiSubscriber</text><rect fill="#FEFECE" filter="url(#fpwt3wydbrq07)" height="30.2969" style="stroke:#A80036;stroke-width:1.5;" width="132" x="2388.5" y="5"/><text fill="#000000" font-family="sans-serif" font-size="14" lengthAdjust="spacing" textLength="118" x="2395.5" y="24.9951">CmpApiProvider</text><rect fill="#FEFECE" filter="url(#fpwt3wydbrq07)" height="30.2969" style="stroke:#A80036;stroke-width:1.5;" width="132" x="2388.5" y="554.5547"/><text fill="#000000" font-family="sans-serif" font-size="14" lengthAdjust="spacing" textLength="118" x="2395.5" y="574.5498">CmpApiProvider</text><polygon fill="#A80036" points="234.5,67.4297,244.5,71.4297,234.5,75.4297,238.5,71.4297" style="stroke:#A80036;stroke-width:1.0;"/><line style="stroke:#A80036;stroke-width:1.0;" x1="86" x2="240.5" y1="71.4297" y2="71.4297"/><text fill="#000000" font-family="sans-serif" font-size="13" lengthAdjust="spacing" textLength="56" x="93" y="66.3638">Dispatch</text><polygon fill="#A80036" points="432,96.5625,442,100.5625,432,104.5625,436,100.5625" style="stroke:#A80036;stroke-width:1.0;"/><line style="stroke:#A80036;stroke-width:1.0;" x1="246.5" x2="438" y1="100.5625" y2="100.5625"/><text fill="#000000" font-family="sans-serif" font-size="13" lengthAdjust="spacing" textLength="152" x="253.5" y="95.4966">onApplyConsent(event)</text><polygon fill="#A80036" points="909,125.6953,919,129.6953,909,133.6953,913,129.6953" style="stroke:#A80036;stroke-width:1.0;"/><line style="stroke:#A80036;stroke-width:1.0;" x1="444" x2="915" y1="129.6953" y2="129.6953"/><text fill="#000000" font-family="sans-serif" font-size="13" lengthAdjust="spacing" textLength="453" x="451" y="124.6294">generateAndPersistConsent(UIChoicesBridgeDto, SoloCmpDataBundle)</text><polygon fill="#A80036" points="1357,154.8281,1367,158.8281,1357,162.8281,1361,158.8281" style="stroke:#A80036;stroke-width:1.0;"/><line style="stroke:#A80036;stroke-width:1.0;" x1="921" x2="1363" y1="158.8281" y2="158.8281"/><text fill="#000000" font-family="sans-serif" font-size="13" lengthAdjust="spacing" textLength="424" x="928" y="153.7622">new(SoloCmpDataBundle.TCModel, SoloCmpDataBundle.ACModel)</text><polygon fill="#A80036" points="1357,183.9609,1367,187.9609,1357,191.9609,1361,187.9609" style="stroke:#A80036;stroke-width:1.0;"/><line style="stroke:#A80036;stroke-width:1.0;" x1="921" x2="1363" y1="187.9609" y2="187.9609"/><text fill="#000000" font-family="sans-serif" font-size="13" lengthAdjust="spacing" textLength="358" x="928" y="182.895">parseTCModel(soloCmpDataBundle.uiChoicesBridgeDto)</text><polygon fill="#A80036" points="1357,213.0938,1367,217.0938,1357,221.0938,1361,217.0938" style="stroke:#A80036;stroke-width:1.0;"/><line style="stroke:#A80036;stroke-width:1.0;" x1="921" x2="1363" y1="217.0938" y2="217.0938"/><text fill="#000000" font-family="sans-serif" font-size="13" lengthAdjust="spacing" textLength="359" x="928" y="212.0278">parseACModel(soloCmpDataBundle.uiChoicesBridgeDto)</text><polygon fill="#A80036" points="257.5,242.2266,247.5,246.2266,257.5,250.2266,253.5,246.2266" style="stroke:#A80036;stroke-width:1.0;"/><line style="stroke:#A80036;stroke-width:1.0;" x1="251.5" x2="920" y1="246.2266" y2="246.2266"/><text fill="#000000" font-family="sans-serif" font-size="13" lengthAdjust="spacing" textLength="217" x="263.5" y="241.1606">dispatch(BeforeBuildStringsEvent)</text><polygon fill="#A80036" points="1500,271.3594,1510,275.3594,1500,279.3594,1504,275.3594" style="stroke:#A80036;stroke-width:1.0;"/><line style="stroke:#A80036;stroke-width:1.0;" x1="921" x2="1506" y1="275.3594" y2="275.3594"/><text fill="#000000" font-family="sans-serif" font-size="13" lengthAdjust="spacing" textLength="94" x="928" y="270.2935">buildTCString()</text><polygon fill="#A80036" points="1644.5,300.4922,1654.5,304.4922,1644.5,308.4922,1648.5,304.4922" style="stroke:#A80036;stroke-width:1.0;"/><line style="stroke:#A80036;stroke-width:1.0;" x1="921" x2="1650.5" y1="304.4922" y2="304.4922"/><text fill="#000000" font-family="sans-serif" font-size="13" lengthAdjust="spacing" textLength="95" x="928" y="299.4263">buildACString()</text><polygon fill="#A80036" points="257.5,329.625,247.5,333.625,257.5,337.625,253.5,333.625" style="stroke:#A80036;stroke-width:1.0;"/><line style="stroke:#A80036;stroke-width:1.0;" x1="251.5" x2="920" y1="333.625" y2="333.625"/><text fill="#000000" font-family="sans-serif" font-size="13" lengthAdjust="spacing" textLength="195" x="263.5" y="328.5591">dispatch(ConsentReadyEvent)</text><polygon fill="#A80036" points="1817,358.7578,1827,362.7578,1817,366.7578,1821,362.7578" style="stroke:#A80036;stroke-width:1.0;"/><line style="stroke:#A80036;stroke-width:1.0;" x1="246.5" x2="1823" y1="362.7578" y2="362.7578"/><text fill="#000000" font-family="sans-serif" font-size="13" lengthAdjust="spacing" textLength="157" x="253.5" y="357.6919">onConsentReady(event)</text><polygon fill="#A80036" points="2034,387.8906,2044,391.8906,2034,395.8906,2038,391.8906" style="stroke:#A80036;stroke-width:1.0;"/><line style="stroke:#A80036;stroke-width:1.0;" x1="1829" x2="2040" y1="391.8906" y2="391.8906"/><text fill="#000000" font-family="sans-serif" font-size="13" lengthAdjust="spacing" textLength="193" x="1836" y="386.8247">onConsentAdsCallBack(event)</text><polygon fill="#A80036" points="2225.5,417.0234,2235.5,421.0234,2225.5,425.0234,2229.5,421.0234" style="stroke:#A80036;stroke-width:1.0;"/><line style="stroke:#A80036;stroke-width:1.0;" x1="246.5" x2="2231.5" y1="421.0234" y2="421.0234"/><text fill="#000000" font-family="sans-serif" font-size="13" lengthAdjust="spacing" textLength="157" x="253.5" y="415.9575">onConsentReady(event)</text><polygon fill="#A80036" points="2444.5,446.1563,2454.5,450.1563,2444.5,454.1563,2448.5,450.1563" style="stroke:#A80036;stroke-width:1.0;"/><line style="stroke:#A80036;stroke-width:1.0;" x1="2237.5" x2="2450.5" y1="450.1563" y2="450.1563"/><text fill="#000000" font-family="sans-serif" font-size="13" lengthAdjust="spacing" textLength="195" x="2244.5" y="445.0903">cmpApi.update(tcString, false)</text><polygon fill="#A80036" points="1500,475.2891,1510,479.2891,1500,483.2891,1504,479.2891" style="stroke:#A80036;stroke-width:1.0;"/><line style="stroke:#A80036;stroke-width:1.0;" x1="921" x2="1506" y1="479.2891" y2="479.2891"/><text fill="#000000" font-family="sans-serif" font-size="13" lengthAdjust="spacing" textLength="156" x="928" y="474.2231">persistTCString(tcString)</text><polygon fill="#A80036" points="1644.5,504.4219,1654.5,508.4219,1644.5,512.4219,1648.5,508.4219" style="stroke:#A80036;stroke-width:1.0;"/><line style="stroke:#A80036;stroke-width:1.0;" x1="921" x2="1650.5" y1="508.4219" y2="508.4219"/><text fill="#000000" font-family="sans-serif" font-size="13" lengthAdjust="spacing" textLength="160" x="928" y="503.356">persistACString(acString)</text><polygon fill="#A80036" points="257.5,533.5547,247.5,537.5547,257.5,541.5547,253.5,537.5547" style="stroke:#A80036;stroke-width:1.0;"/><line style="stroke:#A80036;stroke-width:1.0;" x1="251.5" x2="920" y1="537.5547" y2="537.5547"/><text fill="#000000" font-family="sans-serif" font-size="13" lengthAdjust="spacing" textLength="213" x="263.5" y="532.4888">dispatch(ConsentPersistedEvent)</text><!--MD5=[d19dba4820f9ee95ae53e50f677b94c3]
@startuml
ApplyConsentEvent -> EventDispatcher: Dispatch
EventDispatcher -> ConsentsGeneratorSubscriber : onApplyConsent(event)
ConsentsGeneratorSubscriber -> ConsentsGeneratorService : generateAndPersistConsent(UIChoicesBridgeDto, SoloCmpDataBundle)
ConsentsGeneratorService -> UIChoicesParser : new(SoloCmpDataBundle.TCModel, SoloCmpDataBundle.ACModel)
ConsentsGeneratorService -> UIChoicesParser : parseTCModel(soloCmpDataBundle.uiChoicesBridgeDto)
ConsentsGeneratorService -> UIChoicesParser : parseACModel(soloCmpDataBundle.uiChoicesBridgeDto)
ConsentsGeneratorService -> EventDispatcher : dispatch(BeforeBuildStringsEvent)
ConsentsGeneratorService -> TCStringService : buildTCString()
ConsentsGeneratorService -> ACStringService : buildACString()
ConsentsGeneratorService -> EventDispatcher : dispatch(ConsentReadyEvent)
EventDispatcher -> CmpCallbackSubscriber : onConsentReady(event)
CmpCallbackSubscriber -> CmpConfigurationProvider : onConsentAdsCallBack(event)
EventDispatcher -> CmpApiSubscriber : onConsentReady(event)
CmpApiSubscriber -> CmpApiProvider : cmpApi.update(tcString, false)
ConsentsGeneratorService -> TCStringService : persistTCString(tcString)
ConsentsGeneratorService -> ACStringService : persistACString(acString)
ConsentsGeneratorService -> EventDispatcher : dispatch(ConsentPersistedEvent)
@enduml

PlantUML version 1.2021.17beta3(Unknown compile time)
(GPL source distribution)
Java Runtime: Java(TM) SE Runtime Environment
JVM: Java HotSpot(TM) 64-Bit Server VM
Default Encoding: UTF-8
Language: en
Country: US
--></g></svg>